<svg width="43" height="43" viewBox="0 0 43 43" fill="none" xmlns="http://www.w3.org/2000/svg">
<path d="M17.021 29.5622L29.5627 21.4997L17.021 13.4372V29.5622ZM21.5002 39.4163C19.0217 39.4163 16.6925 38.946 14.5127 38.0054C12.3328 37.0648 10.4366 35.7882 8.82412 34.1757C7.21162 32.5632 5.93506 30.667 4.99443 28.4872C4.05381 26.3073 3.5835 23.9781 3.5835 21.4997C3.5835 19.0212 4.05381 16.692 4.99443 14.5122C5.93506 12.3323 7.21162 10.4361 8.82412 8.82363C10.4366 7.21113 12.3328 5.93457 14.5127 4.99395C16.6925 4.05332 19.0217 3.58301 21.5002 3.58301C23.9786 3.58301 26.3078 4.05332 28.4877 4.99395C30.6675 5.93457 32.5637 7.21113 34.1762 8.82363C35.7887 10.4361 37.0653 12.3323 38.0059 14.5122C38.9465 16.692 39.4168 19.0212 39.4168 21.4997C39.4168 23.9781 38.9465 26.3073 38.0059 28.4872C37.0653 30.667 35.7887 32.5632 34.1762 34.1757C32.5637 35.7882 30.6675 37.0648 28.4877 38.0054C26.3078 38.946 23.9786 39.4163 21.5002 39.4163ZM21.5002 35.833C25.5016 35.833 28.8908 34.4445 31.6679 31.6674C34.445 28.8903 35.8335 25.5011 35.8335 21.4997C35.8335 17.4983 34.445 14.109 31.6679 11.332C28.8908 8.55488 25.5016 7.16634 21.5002 7.16634C17.4988 7.16634 14.1095 8.55488 11.3325 11.332C8.55537 14.109 7.16683 17.4983 7.16683 21.4997C7.16683 25.5011 8.55537 28.8903 11.3325 31.6674C14.1095 34.4445 17.4988 35.833 21.5002 35.833Z" fill="black"/>
</svg>